<mxfile host="app.diagrams.net" agent="Mozilla/5.0 (Windows NT 10.0; Win64; x64) AppleWebKit/537.36 (KHTML, like Gecko) Chrome/141.0.0.0 Safari/537.36" version="28.2.7">
  <diagram name="YouTube DWH Star Schema" id="0">
    <mxGraphModel dx="1385" dy="1846" grid="1" gridSize="10" guides="1" tooltips="1" connect="1" arrows="1" fold="1" page="1" pageScale="1" pageWidth="1920" pageHeight="1080" math="0" shadow="0">
      <root>
        <mxCell id="0" />
        <mxCell id="1" parent="0" />
        <mxCell id="f1" value="&lt;b&gt;FactVideoViews&lt;/b&gt;&lt;br/&gt;PK ViewKey&lt;br/&gt;FK DateKey, UserKey, VideoKey, DeviceKey&lt;br/&gt;Measures: ViewCount, WatchDurationSeconds" style="shape=rectangle;whiteSpace=wrap;html=1;rounded=1;fontSize=12;align=left;spacingLeft=8;fillColor=#fff2cc;" parent="1" vertex="1">
          <mxGeometry x="680" y="-30" width="300" height="140" as="geometry" />
        </mxCell>
        <mxCell id="f2" value="&lt;b&gt;FactVideoLikes&lt;/b&gt;&lt;br/&gt;PK LikeKey&lt;br/&gt;FK DateKey, UserKey, VideoKey&lt;br/&gt;Measures: LikeCount, DislikeCount" style="shape=rectangle;whiteSpace=wrap;html=1;rounded=1;fontSize=12;align=left;spacingLeft=8;fillColor=#fff2cc;" parent="1" vertex="1">
          <mxGeometry x="230" y="470" width="300" height="140" as="geometry" />
        </mxCell>
        <mxCell id="f3" value="&lt;b&gt;FactSubscriptions&lt;/b&gt;&lt;br/&gt;PK SubscriptionKey&lt;br/&gt;FK DateKey, UserKey, ChannelKey&lt;br/&gt;Measures: SubscriptionCount" style="shape=rectangle;whiteSpace=wrap;html=1;rounded=1;fontSize=12;align=left;spacingLeft=8;fillColor=#fff2cc;" parent="1" vertex="1">
          <mxGeometry x="750" y="370" width="300" height="140" as="geometry" />
        </mxCell>
        <mxCell id="d1" value="&lt;b&gt;DimDate&lt;/b&gt;&lt;br/&gt;PK DateKey&lt;br/&gt;FullDate, Day, Month, Quarter, Year" style="shape=rectangle;whiteSpace=wrap;html=1;rounded=1;fontSize=12;align=left;spacingLeft=8;fillColor=#dae8fc;" parent="1" vertex="1">
          <mxGeometry x="630" y="180" width="260" height="120" as="geometry" />
        </mxCell>
        <mxCell id="d2" value="&lt;b&gt;DimUser&lt;/b&gt;&lt;br/&gt;PK UserKey&lt;br/&gt;NK UserId&lt;br/&gt;Username, Country, Role, JoinYear, IsCurrent&lt;br/&gt;ValidFrom, ValidTo" style="shape=rectangle;whiteSpace=wrap;html=1;rounded=1;fontSize=12;align=left;spacingLeft=8;fillColor=#dae8fc;" parent="1" vertex="1">
          <mxGeometry x="310" y="90" width="280" height="140" as="geometry" />
        </mxCell>
        <mxCell id="d3" value="&lt;b&gt;DimVideo&lt;/b&gt;&lt;br/&gt;PK VideoKey&lt;br/&gt;NK VideoId&lt;br/&gt;Title, Category, DurationSeconds, ChannelKey" style="shape=rectangle;whiteSpace=wrap;html=1;rounded=1;fontSize=12;align=left;spacingLeft=8;fillColor=#dae8fc;" parent="1" vertex="1">
          <mxGeometry x="120" y="-70" width="320" height="140" as="geometry" />
        </mxCell>
        <mxCell id="d4" value="&lt;b&gt;DimChannel&lt;/b&gt;&lt;br/&gt;PK ChannelKey&lt;br/&gt;NK ChannelId&lt;br/&gt;ChannelName, CreationYear, TotalSubscribers, IsCurrent&lt;br/&gt;ValidFrom, ValidTo" style="shape=rectangle;whiteSpace=wrap;html=1;rounded=1;fontSize=12;align=left;spacingLeft=8;fillColor=#dae8fc;" parent="1" vertex="1">
          <mxGeometry x="940" y="160" width="320" height="160" as="geometry" />
        </mxCell>
        <mxCell id="d5" value="&lt;b&gt;DimCategory&lt;/b&gt;&lt;br/&gt;PK CategoryKey&lt;br/&gt;CategoryName, Description" style="shape=rectangle;whiteSpace=wrap;html=1;rounded=1;fontSize=12;align=left;spacingLeft=8;fillColor=#dae8fc;" parent="1" vertex="1">
          <mxGeometry x="100" y="250" width="260" height="120" as="geometry" />
        </mxCell>
        <mxCell id="d6" value="&lt;b&gt;DimDevice&lt;/b&gt;&lt;br/&gt;PK DeviceKey&lt;br/&gt;DeviceType, OSName" style="shape=rectangle;whiteSpace=wrap;html=1;rounded=1;fontSize=12;align=left;spacingLeft=8;fillColor=#dae8fc;" parent="1" vertex="1">
          <mxGeometry x="1040" y="-10" width="240" height="100" as="geometry" />
        </mxCell>
        <mxCell id="e1" value="" style="edgeStyle=orthogonalEdgeStyle;rounded=0;html=1;endArrow=block;entryX=0.47;entryY=0.986;entryDx=0;entryDy=0;entryPerimeter=0;" parent="1" target="f1" edge="1">
          <mxGeometry relative="1" as="geometry">
            <mxPoint x="820" y="180" as="sourcePoint" />
          </mxGeometry>
        </mxCell>
        <mxCell id="e2" value="" style="edgeStyle=orthogonalEdgeStyle;rounded=0;html=1;endArrow=block;" parent="1" source="d2" target="f1" edge="1">
          <mxGeometry relative="1" as="geometry" />
        </mxCell>
        <mxCell id="e3" value="" style="edgeStyle=orthogonalEdgeStyle;rounded=0;html=1;endArrow=block;entryX=0;entryY=0.25;entryDx=0;entryDy=0;" parent="1" source="d3" target="f1" edge="1">
          <mxGeometry relative="1" as="geometry" />
        </mxCell>
        <mxCell id="e4" value="" style="edgeStyle=orthogonalEdgeStyle;rounded=0;html=1;endArrow=block;" parent="1" source="d6" target="f1" edge="1">
          <mxGeometry relative="1" as="geometry" />
        </mxCell>
        <mxCell id="e5" value="" style="edgeStyle=orthogonalEdgeStyle;rounded=0;html=1;endArrow=block;entryX=1;entryY=0.5;entryDx=0;entryDy=0;exitX=0.25;exitY=1;exitDx=0;exitDy=0;" parent="1" source="d1" target="f2" edge="1">
          <mxGeometry relative="1" as="geometry">
            <mxPoint x="220" y="490" as="targetPoint" />
            <Array as="points">
              <mxPoint x="695" y="540" />
            </Array>
          </mxGeometry>
        </mxCell>
        <mxCell id="e6" value="" style="edgeStyle=orthogonalEdgeStyle;rounded=0;html=1;endArrow=block;entryX=0.5;entryY=0;entryDx=0;entryDy=0;exitX=0.25;exitY=1;exitDx=0;exitDy=0;" parent="1" source="d2" target="f2" edge="1">
          <mxGeometry relative="1" as="geometry" />
        </mxCell>
        <mxCell id="e7" value="" style="edgeStyle=orthogonalEdgeStyle;rounded=0;html=1;endArrow=block;entryX=0;entryY=0.25;entryDx=0;entryDy=0;exitX=0;exitY=0.5;exitDx=0;exitDy=0;" parent="1" source="d3" target="f2" edge="1">
          <mxGeometry relative="1" as="geometry">
            <mxPoint x="200" y="60" as="sourcePoint" />
            <Array as="points">
              <mxPoint x="70" y="-10" />
              <mxPoint x="70" y="575" />
            </Array>
          </mxGeometry>
        </mxCell>
        <mxCell id="e8" value="" style="edgeStyle=orthogonalEdgeStyle;rounded=0;html=1;endArrow=block;entryX=0.25;entryY=0;entryDx=0;entryDy=0;exitX=0.75;exitY=1;exitDx=0;exitDy=0;" parent="1" source="d1" target="f3" edge="1">
          <mxGeometry relative="1" as="geometry" />
        </mxCell>
        <mxCell id="e9" value="" style="edgeStyle=orthogonalEdgeStyle;rounded=0;html=1;endArrow=block;entryX=0;entryY=0.5;entryDx=0;entryDy=0;exitX=0.75;exitY=1;exitDx=0;exitDy=0;" parent="1" source="d2" target="f3" edge="1">
          <mxGeometry relative="1" as="geometry" />
        </mxCell>
        <mxCell id="e10" value="" style="edgeStyle=orthogonalEdgeStyle;rounded=0;html=1;endArrow=block;entryX=1;entryY=0.5;entryDx=0;entryDy=0;" parent="1" source="d4" target="f3" edge="1">
          <mxGeometry relative="1" as="geometry" />
        </mxCell>
        <mxCell id="e11" value="category attribute source" style="edgeStyle=orthogonalEdgeStyle;rounded=0;html=1;endArrow=block;entryX=0.347;entryY=0.986;entryDx=0;entryDy=0;entryPerimeter=0;" parent="1" source="d5" target="d3" edge="1">
          <mxGeometry relative="1" as="geometry" />
        </mxCell>
      </root>
    </mxGraphModel>
  </diagram>
</mxfile>
